<svg xmlns="http://www.w3.org/2000/svg" viewBox="0 0 42.52 90.71" height="120.947" width="56.693"><circle cx="9.55" cy="108.8" r="1.969" fill="none" stroke="#9a916c" stroke-width="1.103"/><circle cx="47.74" cy="108.8" r="1.969" fill="none" stroke="#9a916c" stroke-width="1.103"/><circle cx="18.95" cy="108.8" r="1.969" fill="none" stroke="#9a916c" stroke-width="1.103"/><circle cx="28.5" cy="108.8" r="1.969" fill="none" stroke="#9a916c" stroke-width="1.103"/><circle cx="38.05" cy="108.8" r="1.969" fill="none" stroke="#9a916c" stroke-width="1.103"/><path d="M0 0h42.52v90.71H0zm7.198 85.668a4.333 4.333 0 1 0 0-8.666 4.333 4.333 0 0 0 0 8.666zm28.125 0a4.333 4.333 0 1 0 0-8.666 4.333 4.333 0 0 0 0 8.666zm.512-75.375a1.197 1.197 0 1 0 0-2.394 1.197 1.197 0 0 0 0 2.394zm-7.198-.001a1.196 1.196 0 1 0 .001-2.393 1.196 1.196 0 0 0-.001 2.393zm-7.2.002a1.198 1.198 0 1 0 0-2.396 1.198 1.198 0 0 0 0 2.396zm-7.2-.001a1.197 1.197 0 1 0 0-2.394 1.197 1.197 0 0 0 0 2.394zm-7.201 0a1.197 1.197 0 1 0 0-2.394 1.197 1.197 0 0 0 0 2.394z" fill="#18355e"/><g fill="#fff"><path d="M35.014 1.903h.863l.467.464.002.016.002.019c0 .005 0 .012-.002.02l-.002.015a.255.255 0 0 1-.032.036c-.016.016-.028.026-.036.028-.002.003-.007.005-.015.006l-.019.002-.019-.002c-.007-.001-.011-.003-.011-.006l-.399-.33h-.734l-.266.264v1.463a1.292 1.292 0 0 0 .145.15.582.582 0 0 0 .125.089.174.174 0 0 0 .065.027l.04.002.082.002.097.001c.032.002.058.002.078.002.02 0 .047 0 .08-.002l.095-.001.085-.002.04-.002.022-.008a.372.372 0 0 0 .04-.02l.042-.022a.558.558 0 0 0 .085-.067 4.047 4.047 0 0 0 .121-.122c.015-.016.022-.025.022-.028v-.566h-.664c-.005 0-.017-.013-.035-.037a.232.232 0 0 1-.034-.062l-.001-.015-.002-.02c0-.005 0-.011.002-.019l.001-.016a.193.193 0 0 1 .069-.064h.931v.996c0 .005-.009.016-.026.032-.018.017-.032.028-.042.036l-.059.045c-.026.021-.054.041-.082.062a4.17 4.17 0 0 0-.126.091.244.244 0 0 1-.032.019l-.042.023a.446.446 0 0 1-.038.019l-.021.008h-.862l-.021-.008a.458.458 0 0 1-.04-.019l-.042-.023c-.013-.007-.022-.014-.03-.019a4.17 4.17 0 0 0-.125-.09l-.082-.062-.059-.045a.247.247 0 0 1-.068-.068V2.366zM36.853 1.83h.019c.008 0 .012.002.012.004a.2.2 0 0 0 .028.025.473.473 0 0 1 .08.079l.025.029 1.132 1.729.099.069V1.899a.436.436 0 0 1 .099-.064l.015-.002.019-.002.034.004c.01.006.023.017.04.032.016.017.024.027.024.032v2.463c0 .005-.008.017-.024.034a.166.166 0 0 1-.04.034l-.015.002-.019.002a.154.154 0 0 1-.019-.002l-.015-.002a.238.238 0 0 1-.029-.022 1.549 1.549 0 0 1-.042-.04l-.04-.042a.145.145 0 0 1-.023-.028l-1.128-1.733-.103-.064v1.862c0 .005-.013.017-.038.034a.295.295 0 0 1-.049.03.102.102 0 0 1-.025.006l-.021.002a.173.173 0 0 1-.03-.004.132.132 0 0 1-.043-.034c-.017-.018-.025-.029-.025-.034V1.9c0-.005.008-.016.025-.032a.168.168 0 0 1 .043-.032c0-.002.004-.004.012-.004a.103.103 0 0 1 .022-.002zM38.882 1.899h1.266l.463.468v1.729a.407.407 0 0 1-.064.068l-.059.045c-.026.021-.054.041-.082.062a4.17 4.17 0 0 0-.078.057l-.047.034a.385.385 0 0 1-.074.044.239.239 0 0 1-.059.024h-1.266zm.266 2.265h.866a.26.26 0 0 0 .063-.025.558.558 0 0 0 .127-.091c.023-.021.044-.043.065-.064a2.065 2.065 0 0 0 .075-.086V2.431l-.265-.266h-.931z"/><g><path d="M27.026 1.832a.397.397 0 0 0 .069.007 16.772 16.772 0 0 1 .234.198l.141.121a13.29 13.29 0 0 1 .203.188c.046.044.089.088.131.131l.108.112c.03.031.045.049.045.052v1.66c0 .005-.008.017-.024.034a.135.135 0 0 1-.033.03.053.053 0 0 1-.021.006l-.021.002a.154.154 0 0 1-.019-.002l-.015-.002c-.013-.005-.032-.017-.059-.034-.026-.018-.04-.029-.04-.034v-.996H26.46v.996c0 .005-.013.017-.038.034a.295.295 0 0 1-.049.03.102.102 0 0 1-.025.006l-.021.002a.173.173 0 0 1-.03-.004.132.132 0 0 1-.043-.034c-.017-.018-.025-.029-.025-.034 0-1.064.008-1.606.023-1.628a4.006 4.006 0 0 1 .178-.234l.07-.087c.031-.041.065-.082.101-.124l.099-.115.061-.072a.753.753 0 0 1 .047-.052l.064-.064.057-.057a.19.19 0 0 1 .032-.029.456.456 0 0 0 .028-.003.221.221 0 0 1 .037-.004zm0 .342a7.085 7.085 0 0 0-.066.078c-.032.036-.065.076-.101.119l-.101.122a1.125 1.125 0 0 0-.063.079c-.013.019-.03.041-.053.069a1.348 1.348 0 0 0-.064.085l-.055.076-.028.036a.39.39 0 0 0-.019.066.362.362 0 0 0-.011.066h1.28a.321.321 0 0 0-.005-.04l-.014-.061a.701.701 0 0 0-.017-.059.14.14 0 0 0-.017-.038 1.649 1.649 0 0 0-.108-.118l-.087-.085a1.689 1.689 0 0 0-.07-.067c-.016-.013-.042-.034-.078-.066l-.12-.101-.122-.099-.081-.062zM28.359 1.839h1.266l.463.468v1.729a.407.407 0 0 1-.064.068l-.059.045c-.026.021-.054.041-.082.062a4.17 4.17 0 0 0-.078.057l-.047.034a.385.385 0 0 1-.074.044.239.239 0 0 1-.059.024h-1.266zm.266 2.265h.866a.26.26 0 0 0 .063-.025.558.558 0 0 0 .127-.091c.023-.021.044-.043.065-.064a2.065 2.065 0 0 0 .075-.086V2.371l-.266-.266h-.931v1.999zM30.491 1.839h1.266l.463.468v1.729a.407.407 0 0 1-.064.068l-.059.045c-.026.021-.054.041-.082.062a4.17 4.17 0 0 0-.078.057l-.047.034a.385.385 0 0 1-.074.044.239.239 0 0 1-.059.024h-1.266zm.266 2.265h.866a.26.26 0 0 0 .063-.025.558.558 0 0 0 .127-.091c.023-.021.044-.043.065-.064a2.065 2.065 0 0 0 .075-.086V2.371l-.266-.266h-.931v1.999z"/></g></g><g fill="#fff"><path d="M18.188 3.866a.23.23 0 0 1 .004-.034.255.255 0 0 1 .032-.036l.03-.028a.107.107 0 0 1 .017-.006l.019-.002.019.002.015.002c.01.021.033.048.068.082a2.48 2.48 0 0 0 .24.199.554.554 0 0 0 .091.054 1.908 1.908 0 0 0 .141.015l.106.006.087.002.066-.002.099-.006a2.84 2.84 0 0 0 .165-.015.5.5 0 0 1 .042-.038c.021-.017.041-.038.063-.06a1.7 1.7 0 0 0 .06-.063l.037-.042a.394.394 0 0 0 .036-.064.342.342 0 0 0 .029-.068.136.136 0 0 0 .005-.042c.002-.025.002-.044.002-.057 0-.013 0-.031-.002-.057a.209.209 0 0 0-.032-.106c-.018-.033-.03-.056-.038-.068a1.029 1.029 0 0 0-.051-.066l-.064-.078a1.027 1.027 0 0 0-.058-.064c-.017-.017-.025-.027-.028-.027h-.729l-.467-.497v-.468l.467-.464h.931c.003 0 .013.009.029.025l.036.039.045.06.063.081.06.078a.79.79 0 0 1 .034.048c.005.013.017.035.034.068a.612.612 0 0 1 .03.064c.003.003.004.009.004.019v.039c0 .008-.001.012-.004.012a.255.255 0 0 1-.032.036.166.166 0 0 1-.032.028c-.003.003-.014.005-.032.006l-.044.002-.032-.002c-.013-.001-.022-.003-.024-.006l-.335-.33h-.665c-.013 0-.031.01-.057.03a.837.837 0 0 0-.08.072c-.028.027-.054.057-.08.087a.254.254 0 0 0-.049.076l-.004.022c-.003.012-.004.028-.006.046a.682.682 0 0 0-.004.141l.004.054a.3.3 0 0 0 .006.047.155.155 0 0 1 .004.025c.01.022.027.05.051.083a1.053 1.053 0 0 0 .162.179c.025.022.043.034.053.034h.866a.41.41 0 0 1 .032.052l.033.051.037.05.065.081.063.084.036.051.019.031a.225.225 0 0 1 .021.041l.017.04.008.021.002.032.004.064.002.074v.122l-.002.076-.004.064-.002.03a.43.43 0 0 1-.064.133l-.034.047-.06.078-.063.082-.045.059c-.008.013-.021.027-.036.044-.017.017-.026.024-.029.024h-.931a12.93 12.93 0 0 1-.469-.479.074.074 0 0 1-.003-.019zM20.385 1.833h1.265l.464.468V4.03a.416.416 0 0 1-.064.068l-.059.045-.082.062a4.17 4.17 0 0 0-.078.057l-.047.034a.42.42 0 0 1-.074.044.238.238 0 0 1-.06.024h-1.265zm.266 2.266h.866a.276.276 0 0 0 .063-.025.551.551 0 0 0 .128-.091 1.93 1.93 0 0 0 .14-.15V2.366l-.267-.266h-.931v1.999zM23.368 1.826a.42.42 0 0 0 .068.007l.093.078.141.12.141.121a4.095 4.095 0 0 1 .203.188c.046.044.09.088.131.131l.108.112c.03.031.046.049.046.052v1.66c0 .005-.008.017-.024.034a.17.17 0 0 1-.032.03.065.065 0 0 1-.021.006l-.021.002-.02-.002-.015-.002c-.013-.005-.032-.017-.059-.034-.027-.018-.04-.029-.04-.034v-.996h-1.266v.996c0 .005-.013.017-.038.034a.254.254 0 0 1-.05.03.094.094 0 0 1-.024.006l-.021.002a.162.162 0 0 1-.03-.004.145.145 0 0 1-.044-.034c-.017-.017-.024-.029-.024-.034 0-1.064.007-1.606.022-1.628.015-.021.033-.047.055-.074l.066-.086.058-.074.07-.087c.031-.041.065-.082.101-.124l.099-.115.061-.072a.825.825 0 0 1 .048-.052l.064-.064.057-.057a.18.18 0 0 1 .033-.029.456.456 0 0 0 .028-.003.223.223 0 0 1 .036-.004zm0 .342a7.085 7.085 0 0 0-.066.078l-.102.119c-.035.043-.068.084-.101.122a2.491 2.491 0 0 0-.116.148.859.859 0 0 0-.064.085c-.021.029-.039.055-.056.076a.748.748 0 0 0-.028.036.49.49 0 0 0-.031.132h1.28a.225.225 0 0 0-.006-.04l-.013-.061c-.006-.021-.011-.041-.018-.059a.14.14 0 0 0-.017-.038.502.502 0 0 0-.034-.042c-.021-.022-.045-.048-.074-.076l-.088-.085a1.689 1.689 0 0 0-.07-.067l-.077-.066-.12-.101-.122-.099-.077-.062z"/></g><g fill="#fff"><path d="M1.867 1.829c0-.005.008-.016.024-.032a.164.164 0 0 1 .034-.028.288.288 0 0 1 .021-.006l.02-.002.034.004a.54.54 0 0 1 .061.032c.025.017.038.027.038.032V3.43l.635.597h.064l.277-.333c.096-.115.192-.226.289-.332V1.83c0-.002.013-.012.04-.03a.382.382 0 0 1 .059-.034c.002 0 .008 0 .015-.002l.02-.002.034.004c.01.006.023.017.04.032.017.017.024.027.024.032v1.665a.228.228 0 0 1-.022.034l-.054.074-.064.087a1.248 1.248 0 0 1-.057.07l-.072.09-.103.123-.099.118c-.031.035-.051.058-.062.068l-.049.053c-.021.023-.041.045-.062.064l-.057.056-.03.028c-.003.003-.013.005-.03.008l-.042.004-.034-.004c-.016-.003-.024-.005-.026-.008l-.866-.866zM4.52 1.833h.862l.468.464.002.016.002.019-.002.02-.002.015a.255.255 0 0 1-.032.036c-.016.016-.028.026-.036.028-.003.003-.008.005-.016.006l-.019.002a.154.154 0 0 1-.019-.002c-.008-.001-.012-.003-.012-.006l-.399-.33h-.733l-.266.266V3.83c0 .003.008.013.022.028l.056.058.066.064a.582.582 0 0 0 .125.089.179.179 0 0 0 .064.027l.04.002.082.002.097.001c.032.002.058.002.078.002.02 0 .047 0 .08-.002l.095-.001.085-.002.04-.002a.37.37 0 0 0 .06-.025.289.289 0 0 0 .073-.043l.036-.023.063-.042.064-.041a.283.283 0 0 0 .038-.027l.028-.013.042-.021.038-.021c.011-.006.018-.01.021-.01l.018-.002.021-.002c.005 0 10.757 2.28 10.772 2.283.008.005-10.722-2.263-10.706-2.247l.032.032.002.029.002.039a.805.805 0 0 1-.004.065.49.49 0 0 1-.068.068l-.059.045c-.026.021-.054.041-.082.062l-.078.057c-.023.018-.04.029-.047.034l-.032.019-.042.023-.038.019-.021.008h-.862a.458.458 0 0 1-.061-.027l-.042-.023c-.013-.007-.022-.014-.03-.019l-.048-.034-.077-.057c-.028-.021-.056-.041-.082-.062l-.059-.045a.292.292 0 0 1-.044-.036c-.017-.016-.024-.027-.024-.032V2.298z"/><path d="M6.777 1.833h.862l.468.464.002.016.002.019-.002.02-.002.015a.255.255 0 0 1-.032.036c-.016.016-.028.026-.036.028-.003.003-.008.005-.016.006l-.019.002a.154.154 0 0 1-.019-.002c-.008-.001-.012-.003-.012-.006l-.399-.33h-.733l-.266.266V3.83c0 .003.008.013.022.028l.056.058.066.064a.582.582 0 0 0 .125.089.179.179 0 0 0 .064.027l.04.002.082.002.097.001c.032.002.058.002.078.002.02 0 .047 0 .08-.002L7.38 4.1l.085-.002.04-.002a.37.37 0 0 0 .06-.025.289.289 0 0 0 .073-.043l.036-.023.063-.042.064-.041a.283.283 0 0 0 .038-.027l.028-.013.042-.021.038-.021c.011-.006.018-.01.021-.01l.018-.002.021-.002.03.004c.008.005.02.016.036.032l.032.032.002.029.002.039a.805.805 0 0 1-.004.065.49.49 0 0 1-.068.068l-.059.045c-.026.021-.054.041-.082.062l-.078.057c-.023.018-.04.029-.047.034l-.032.019-.042.023-.038.019-.021.008h-.862a.458.458 0 0 1-.061-.027l-.042-.023c-.013-.007-.022-.014-.03-.019l-.048-.034-.077-.057c-.028-.021-.056-.041-.082-.062l-.059-.045a.292.292 0 0 1-.044-.036c-.017-.016-.024-.027-.024-.032V2.298z"/></g><g fill="#fff"><path d="M9.792 3.867l.003-.034a.39.39 0 0 1 .063-.064.08.08 0 0 1 .017-.006l.02-.002.019.002a.06.06 0 0 0 .016.002c.01.021.032.048.068.082a1.644 1.644 0 0 0 .239.199c.04.028.07.046.091.054a1.81 1.81 0 0 0 .141.015c.035.003.071.005.106.006l.088.002.066-.002.099-.006a2.84 2.84 0 0 0 .165-.015.5.5 0 0 1 .042-.038c.021-.017.041-.038.063-.06a1.7 1.7 0 0 0 .06-.063l.037-.042a.394.394 0 0 0 .036-.064.342.342 0 0 0 .029-.068.136.136 0 0 0 .005-.042c.002-.025.002-.044.002-.057 0-.013 0-.031-.002-.057a.209.209 0 0 0-.032-.106c-.018-.033-.03-.056-.038-.068a1.029 1.029 0 0 0-.051-.066l-.064-.078a1.027 1.027 0 0 0-.058-.064c-.017-.017-.025-.027-.028-.027h-.729l-.468-.497v-.468l.468-.464h.931c.003 0 .013.009.029.025l.036.039.045.06.063.081.06.078a.79.79 0 0 1 .034.048c.005.013.017.035.034.068a.612.612 0 0 1 .03.064c.003.003.004.009.004.019v.039c0 .008-.001.012-.004.012a.255.255 0 0 1-.032.036.166.166 0 0 1-.032.028c-.003.003-.014.005-.032.006l-.044.002-.032-.002c-.013-.001-.022-.003-.024-.006l-.335-.33h-.665c-.013 0-.031.01-.057.03a1.33 1.33 0 0 0-.16.159.302.302 0 0 0-.049.076l-.004.022a.272.272 0 0 0-.006.046l-.004.054-.002.041.002.046.004.054a.3.3 0 0 0 .006.047l.004.025c.01.022.027.05.051.083a1.173 1.173 0 0 0 .162.179c.025.022.043.034.053.034h.866a.41.41 0 0 1 .032.052l.033.051.037.05.065.081.063.084.036.051.019.031a.225.225 0 0 1 .021.041l.017.04.008.021.002.032.004.064.002.074v.122l-.002.076-.004.064-.002.03a.43.43 0 0 1-.064.133l-.034.047-.06.078-.063.082-.045.059c-.008.013-.021.027-.036.044-.017.017-.026.024-.029.024h-.931a12.93 12.93 0 0 1-.469-.479.03.03 0 0 1-.005-.019zM12.455 1.838h.862l.468.464.002.016.002.019-.002.02-.002.015a.255.255 0 0 1-.032.036c-.016.016-.028.026-.036.028-.003.003-.008.005-.016.006l-.019.002a.154.154 0 0 1-.019-.002c-.008-.001-.012-.003-.012-.006l-.399-.33h-.732l-.266.266v1.463c0 .003.008.013.022.028l.056.058.066.064a.582.582 0 0 0 .125.089.179.179 0 0 0 .064.027l.04.002.082.002.097.001c.032.002.058.002.078.002.02 0 .047 0 .08-.002l.095-.001.085-.002.04-.002a.37.37 0 0 0 .06-.025.289.289 0 0 0 .073-.043l.036-.023.063-.042.064-.041a.283.283 0 0 0 .038-.027l.028-.013.042-.021.038-.021c.011-.006.018-.01.021-.01l.018-.002.021-.002.03.004c.008.005.02.016.036.032l.032.032.002.029.002.039a.805.805 0 0 1-.004.065.49.49 0 0 1-.068.068l-.059.045c-.026.021-.054.041-.082.062l-.078.057c-.023.018-.04.029-.047.034l-.032.019-.042.023-.038.019-.021.008h-.862a.458.458 0 0 1-.061-.027l-.042-.023c-.013-.007-.022-.014-.03-.019l-.048-.034-.077-.057c-.028-.021-.056-.041-.082-.062l-.059-.045a.292.292 0 0 1-.044-.036c-.017-.016-.024-.027-.024-.032V2.303zM14.245 1.904c0-.006.008-.017.024-.035a.137.137 0 0 1 .034-.03.108.108 0 0 1 .021-.005c.008-.002.015-.002.02-.002l.034.003a.373.373 0 0 1 .061.034c.025.019.038.029.038.035v2.23h1.433c.005 0 .016.013.032.038a.28.28 0 0 1 .032.061c.003 0 .004.005.004.015v.039c0 .008-.001.012-.004.012a.15.15 0 0 1-.032.044c-.016.017-.027.024-.032.024h-1.664V1.904z"/></g><path d="M39.353 12.971v-7.75H3.52v7.75zM4.291 5.866h34.432v6.344H4.29V5.866z" fill="#fff"/><path fill="#fee24d" d="M11.926 46.647h-4.5v-8.375h4.5z"/><path fill="#e5ac23" d="M11.926 40.054h-4.5v-1.781h4.5z"/><path fill="#95825d" d="M31.428 57.896h-1.939v-3.813h1.939z"/><path fill="#999" d="M31.428 57.896h-1.939v-.858h1.939zM31.429 54.942h-1.94v-.858h1.94z"/><path fill="#95825d" d="M12.352 21.646h-2.125v-3.813h2.125z"/><path fill="#999" d="M12.352 21.646h-2.125v-.858h2.125zM12.353 18.691h-2.126v-.858h2.126z"/><path fill="#020202" d="M30.793 41.856h-2.266V37.74h2.266z"/><path fill="#999" d="M30.793 38.397h-2.266v-.655h2.266zM30.793 41.856h-2.266v-.658h2.266z"/><g><path fill="#020202" d="M25.408 41.856h-2.266V37.74h2.266z"/><path fill="#999" d="M25.408 38.397h-2.266v-.655h2.266zM25.408 41.856h-2.266v-.658h2.266z"/></g><g><path fill="#020202" d="M35.21 21.797h-2.266v-4.116h2.266z"/><path fill="#999" d="M35.21 18.337h-2.266v-.655h2.266zM35.21 21.797h-2.266v-.658h2.266z"/></g><g><path fill="#020202" d="M18.434 21.646h-2.266V17.53h2.266z"/><path fill="#999" d="M18.434 18.186h-2.266v-.655h2.266zM18.434 21.646h-2.266v-.658h2.266z"/></g><g><path fill="#020202" d="M14.34 57.685h-2.266v-4.116h2.266z"/><path fill="#999" d="M14.34 54.225h-2.266v-.655h2.266zM14.34 57.685h-2.266v-.658h2.266z"/></g><g><path fill="#999" d="M13.082 29.852h-1.639v-1.349h1.639zM6.892 32.431h-1.42v-1.214h1.42zM6.892 27.09h-1.42v-1.173h1.42z"/><path fill="#303030" d="M11.145 32.773H7.191V25.74h3.954z"/><path fill="#3d3e3d" d="M6.892 33.072v-7.631l.308.299v7.033z"/><path d="M11.444 33.072l-.308-.299V25.74l.308-.3v7.333z"/><path fill="#1e1f1f" d="M6.892 25.44h4.552l-.308.3H7.2zM11.136 32.773l.308.299H6.892l.308-.299z"/></g><g><path fill="#999" d="M20.302 29.772h-1.64v-1.349h1.64zM24.721 32.355h-1.42v-1.213h1.42zM24.721 27.015h-1.42v-1.174h1.42z"/><path fill="#303030" d="M22.983 32.693h-2.446V25.66h2.446z"/><path fill="#3d3e3d" d="M20.302 25.361v7.631l.235-.299V25.66z"/><path d="M23.301 25.361l-.318.299v7.033l.318.3V25.66z"/><path fill="#1e1f1f" d="M20.537 32.693l-.235.3h2.999l-.318-.3zM22.983 25.66l.318-.299h-2.999l.233.299z"/></g><g><path fill="#333" d="M23.448 58.585h-3.5v-6.594h3.5z"/><path fill="#232323" d="M22.885 57.038H20.51v-3.234h2.375z"/><path fill="#666766" d="M20.51 59.719h-.428v-.499h.428z"/><path fill="#999" d="M20.51 59.22h-.428v-.635h.428z"/><path fill="#666766" d="M21.912 59.719h-.428v-.499h.428z"/><path fill="#999" d="M21.912 59.22h-.428v-.635h.428z"/><g><path fill="#666766" d="M23.313 59.719h-.428v-.499h.428z"/><path fill="#999" d="M23.313 59.22h-.428v-.635h.428z"/></g><g><path fill="#666766" d="M23.313 51.371h-.428v-.498h.428z"/><path fill="#999" d="M23.313 52.006h-.428v-.636h.428z"/><path fill="#666766" d="M21.912 51.371h-.428v-.498h.428z"/><path fill="#999" d="M21.912 52.006h-.428v-.636h.428z"/><g><path fill="#666766" d="M20.51 51.371h-.428v-.498h.428z"/><path fill="#999" d="M20.51 52.006h-.428v-.636h.428z"/></g></g></g><g><path fill="#999" d="M30.421 31.748h-1.136v-1.213h1.136z"/><path fill="#303030" d="M31.092 30.251h-2.477v-3.112h2.477z"/><path fill="#3d3e3d" d="M28.293 26.875V30.535l.322-.284v-3.112z"/><path d="M31.092 27.139v3.112l.322.284v-3.66z"/><path fill="#1e1f1f" d="M28.615 30.251l-.322.284h3.121l-.322-.284zM31.092 27.139l.322-.264h-3.121l.32.264z"/><path fill="#999" d="M30.421 26.875h-1.136v-1.213h1.136z"/></g><path d="M7.198 87.002a5.667 5.667 0 1 0 0-11.333 5.667 5.667 0 0 0 0 11.333zm0-10a4.333 4.333 0 1 1 0 8.666 4.333 4.333 0 0 1 0-8.666zM35.323 87.002a5.667 5.667 0 1 0 0-11.333 5.667 5.667 0 0 0 0 11.333zm0-10a4.333 4.333 0 1 1 0 8.666 4.333 4.333 0 0 1 0-8.666z" fill="#f4c34d"/><g fill="#9a916c"><path d="M35.835 11.489a2.393 2.393 0 1 0 0-4.787 2.393 2.393 0 0 0 0 4.787zm0-3.591a1.197 1.197 0 1 1 0 2.394 1.197 1.197 0 0 1 0-2.394zM28.637 11.489a2.393 2.393 0 1 0 0-4.787 2.393 2.393 0 0 0 0 4.787zm-.001-3.591a1.197 1.197 0 1 1 0 2.394 1.197 1.197 0 0 1 0-2.394zM21.437 11.489a2.394 2.394 0 1 0-.002-4.788 2.394 2.394 0 0 0 .002 4.788zm-.002-3.591a1.197 1.197 0 1 1 0 2.394 1.197 1.197 0 0 1 0-2.394zM14.237 11.489a2.394 2.394 0 1 0-.002-4.788 2.394 2.394 0 0 0 .002 4.788zm0-3.591a1.196 1.196 0 1 1 0 2.392 1.196 1.196 0 0 1 0-2.392zM7.038 11.489a2.394 2.394 0 1 0-.002-4.788 2.394 2.394 0 0 0 .002 4.788zm0-3.591a1.196 1.196 0 1 1 0 2.392 1.196 1.196 0 0 1 0-2.392z"/></g></svg>