<?xml version="1.0" encoding="UTF-8" standalone="no"?>
<!-- Generator: Adobe Illustrator 15.1.0, SVG Export Plug-In . SVG Version: 6.00 Build 0)  -->

<svg
   xmlns:dc="http://purl.org/dc/elements/1.1/"
   xmlns:cc="http://creativecommons.org/ns#"
   xmlns:rdf="http://www.w3.org/1999/02/22-rdf-syntax-ns#"
   xmlns:svg="http://www.w3.org/2000/svg"
   xmlns="http://www.w3.org/2000/svg"
   xmlns:sodipodi="http://sodipodi.sourceforge.net/DTD/sodipodi-0.dtd"
   xmlns:inkscape="http://www.inkscape.org/namespaces/inkscape"
   x="0px"
   y="0px"
   viewBox="0 0 42.52 90.71"
   xml:space="preserve"
   enable-background="new 0 0 42.52 90.71"
   gorn="0"
   version="1.1"
   height="1.25986in"
   id="Layer_2"
   width="0.590556in"
   sodipodi:docname="BH1750.svg"
   inkscape:version="0.92.3 (2405546, 2018-03-11)"><metadata
   id="metadata969"><rdf:RDF><cc:Work
       rdf:about=""><dc:format>image/svg+xml</dc:format><dc:type
         rdf:resource="http://purl.org/dc/dcmitype/StillImage" /><dc:title></dc:title></cc:Work></rdf:RDF></metadata><defs
   id="defs967" /><sodipodi:namedview
   pagecolor="#ffffff"
   bordercolor="#666666"
   borderopacity="1"
   objecttolerance="10"
   gridtolerance="10"
   guidetolerance="10"
   inkscape:pageopacity="0"
   inkscape:pageshadow="2"
   inkscape:window-width="1920"
   inkscape:window-height="1017"
   id="namedview965"
   showgrid="false"
   inkscape:zoom="6.9121435"
   inkscape:cx="28.346689"
   inkscape:cy="60.473282"
   inkscape:window-x="-8"
   inkscape:window-y="-8"
   inkscape:window-maximized="1"
   inkscape:current-layer="Layer_2" />
    <desc
   id="desc742">
        <referenceFile>BH1750_BREADBOARD_v4.svg</referenceFile>
    </desc>
    
    
    
    
    
    
    
    
    
    
    
    
    
    
    
    
    <path
   style="fill:#18355e"
   inkscape:connector-curvature="0"
   d="m 0,0 h 42.52 l 0,90.71 H 0 Z m 7.198,85.668 c 2.393,0 4.333,-1.94 4.333,-4.333 0,-2.393 -1.94,-4.333 -4.333,-4.333 -2.393,0 -4.333,1.94 -4.333,4.333 0,2.393 1.94,4.333 4.333,4.333 z m 28.125,0 c 2.393,0 4.333,-1.94 4.333,-4.333 0,-2.393 -1.94,-4.333 -4.333,-4.333 -2.393,0 -4.333,1.94 -4.333,4.333 0,2.393 1.941,4.333 4.333,4.333 z m 0.512,-75.375 c 0.661,0 1.197,-0.536 1.197,-1.197 0,-0.661 -0.536,-1.197 -1.197,-1.197 -0.661,0 -1.197,0.536 -1.197,1.197 0,0.661 0.536,1.197 1.197,1.197 z m -7.198,-10e-4 c 0.661,0 1.197,-0.535 1.197,-1.196 0,-0.661 -0.536,-1.197 -1.197,-1.197 -0.661,0 -1.197,0.536 -1.197,1.197 0,0.661 0.536,1.196 1.197,1.196 z m -7.2,0.002 c 0.662,0 1.198,-0.537 1.198,-1.198 0,-0.661 -0.536,-1.198 -1.198,-1.198 -0.662,0 -1.198,0.537 -1.198,1.198 0,0.661 0.536,1.198 1.198,1.198 z m -7.2,-0.001 c 0.661,0 1.197,-0.536 1.197,-1.197 0,-0.661 -0.536,-1.197 -1.197,-1.197 -0.661,0 -1.197,0.536 -1.197,1.197 0,0.661 0.536,1.197 1.197,1.197 z m -7.201,0 c 0.661,0 1.197,-0.536 1.197,-1.197 0,-0.661 -0.536,-1.197 -1.197,-1.197 -0.661,0 -1.197,0.536 -1.197,1.197 0,0.661 0.535,1.197 1.197,1.197 z"
   id="path744" /><g
   gorn="0.2"
   id="Silkscreen"
   transform="rotate(180,21.26,45.355)">
        <g
   gorn="0.2.0"
   id="Lettering">
            <g
   id="g758">
                
                
                <g
   id="g1206"
   transform="rotate(180,4.941,87.5775)"><path
     id="path746"
     d="m 2.376,86.348 h 0.863 l 0.467,0.464 c 0,0.003 0,0.008 0.002,0.016 10e-4,0.007 0.002,0.014 0.002,0.019 0,0.005 0,0.012 -0.002,0.02 C 3.707,86.874 3.706,86.88 3.706,86.882 3.701,86.89 3.69,86.902 3.674,86.918 3.658,86.934 3.646,86.944 3.638,86.946 3.636,86.949 3.631,86.951 3.623,86.952 3.615,86.953 3.609,86.954 3.604,86.954 3.599,86.954 3.593,86.953 3.585,86.952 3.578,86.951 3.574,86.949 3.574,86.946 L 3.175,86.616 H 2.441 L 2.175,86.88 v 1.463 c 0,0.003 0.007,0.013 0.023,0.028 0.015,0.017 0.033,0.036 0.055,0.058 0.022,0.022 0.044,0.043 0.067,0.064 0.022,0.021 0.042,0.037 0.057,0.048 0.013,0.01 0.036,0.023 0.068,0.041 0.033,0.019 0.055,0.027 0.065,0.027 0.002,0 0.016,0 0.04,0.002 0.024,10e-4 0.052,0.002 0.082,0.002 0.033,0 0.065,0 0.097,0.001 0.032,0.002 0.058,0.002 0.078,0.002 0.02,0 0.047,0 0.08,-0.002 0.033,-0.001 0.064,-0.001 0.095,-0.001 0.033,0 0.061,-0.001 0.085,-0.002 0.024,-0.002 0.037,-0.002 0.04,-0.002 0.002,0 0.01,-0.003 0.022,-0.008 0.012,-0.005 0.026,-0.012 0.04,-0.02 0.014,-0.007 0.028,-0.015 0.042,-0.022 0.014,-0.008 0.023,-0.014 0.028,-0.019 0.015,-0.011 0.034,-0.026 0.057,-0.048 0.022,-0.021 0.045,-0.043 0.066,-0.064 0.021,-0.021 0.04,-0.041 0.055,-0.058 0.015,-0.016 0.022,-0.025 0.022,-0.028 V 87.776 H 2.775 C 2.77,87.776 2.758,87.763 2.74,87.739 2.722,87.714 2.711,87.693 2.706,87.677 c 0,-0.002 0,-0.008 -10e-4,-0.015 -10e-4,-0.008 -0.002,-0.015 -0.002,-0.02 0,-0.005 0,-0.011 0.002,-0.019 10e-4,-0.008 10e-4,-0.013 10e-4,-0.016 0.005,-0.01 0.017,-0.023 0.034,-0.04 0.018,-0.016 0.029,-0.024 0.035,-0.024 h 0.931 v 0.996 c 0,0.005 -0.009,0.016 -0.026,0.032 -0.018,0.017 -0.032,0.028 -0.042,0.036 -0.013,0.01 -0.032,0.025 -0.059,0.045 -0.026,0.021 -0.054,0.041 -0.082,0.062 -0.028,0.02 -0.054,0.039 -0.078,0.057 C 3.395,88.789 3.379,88.8 3.371,88.805 3.364,88.81 3.353,88.817 3.339,88.824 3.325,88.832 3.311,88.84 3.297,88.847 3.283,88.855 3.27,88.861 3.259,88.866 3.247,88.871 3.24,88.874 3.238,88.874 H 2.376 C 2.374,88.874 2.367,88.871 2.355,88.866 2.343,88.861 2.33,88.855 2.315,88.847 2.3,88.839 2.286,88.831 2.273,88.824 2.26,88.817 2.251,88.81 2.243,88.805 2.235,88.8 2.22,88.79 2.196,88.772 2.172,88.754 2.146,88.735 2.118,88.715 2.09,88.694 2.063,88.674 2.036,88.653 2.009,88.633 1.99,88.618 1.977,88.608 1.964,88.6 1.95,88.588 1.934,88.572 1.917,88.555 1.909,88.545 1.909,88.54 v -1.729 z"
     inkscape:connector-curvature="0"
     style="fill:#ffffff" /><path
     id="path748"
     d="m 4.215,86.275 c 0.005,0 0.012,0 0.019,0 0.008,0 0.012,0.002 0.012,0.004 0.005,0.006 0.014,0.014 0.028,0.025 0.014,0.011 0.028,0.023 0.042,0.038 0.014,0.014 0.027,0.027 0.038,0.041 0.012,0.015 0.02,0.023 0.025,0.029 l 1.132,1.729 0.099,0.069 v -1.866 c 0,-0.002 0.014,-0.012 0.04,-0.03 0.027,-0.018 0.046,-0.028 0.059,-0.034 0.002,0 0.007,0 0.015,-0.002 0.007,-0.001 0.014,-0.002 0.019,-0.002 0.005,0 0.016,0.002 0.034,0.004 0.01,0.006 0.023,0.017 0.04,0.032 0.016,0.017 0.024,0.027 0.024,0.032 v 2.463 c 0,0.005 -0.008,0.017 -0.024,0.034 -0.017,0.018 -0.03,0.029 -0.04,0.034 -0.002,0 -0.008,0.001 -0.015,0.002 -0.008,0.001 -0.014,0.002 -0.019,0.002 -0.005,0 -0.012,-0.001 -0.019,-0.002 C 5.716,88.876 5.711,88.875 5.709,88.875 5.704,88.872 5.694,88.865 5.68,88.853 5.666,88.84 5.652,88.827 5.638,88.813 5.624,88.799 5.611,88.785 5.598,88.771 5.585,88.757 5.577,88.748 5.575,88.743 L 4.447,87.01 4.344,86.946 v 1.862 c 0,0.005 -0.013,0.017 -0.038,0.034 C 4.281,88.859 4.264,88.87 4.257,88.872 4.249,88.875 4.241,88.877 4.232,88.878 4.223,88.879 4.216,88.88 4.211,88.88 4.206,88.88 4.196,88.879 4.181,88.876 4.168,88.871 4.154,88.859 4.138,88.842 4.121,88.824 4.113,88.813 4.113,88.808 v -2.463 c 0,-0.005 0.008,-0.016 0.025,-0.032 0.016,-0.016 0.031,-0.026 0.043,-0.032 0,-0.002 0.004,-0.004 0.012,-0.004 0.01,-0.002 0.017,-0.002 0.022,-0.002 z"
     inkscape:connector-curvature="0"
     style="fill:#ffffff" /><path
     id="path750"
     d="M 6.244,86.344 H 7.51 l 0.463,0.468 v 1.729 c 0,0.002 -0.008,0.013 -0.024,0.03 -0.017,0.018 -0.03,0.03 -0.04,0.038 C 7.896,88.619 7.877,88.634 7.85,88.654 7.824,88.675 7.796,88.695 7.768,88.716 7.74,88.736 7.714,88.755 7.69,88.773 7.666,88.791 7.65,88.802 7.643,88.807 7.628,88.82 7.603,88.834 7.569,88.851 7.535,88.868 7.515,88.875 7.51,88.875 H 6.244 Z m 0.266,2.265 h 0.866 c 0.008,0 0.029,-0.009 0.063,-0.025 0.034,-0.016 0.058,-0.03 0.07,-0.043 C 7.524,88.53 7.543,88.515 7.566,88.493 7.589,88.472 7.61,88.45 7.631,88.429 7.651,88.408 7.669,88.388 7.684,88.371 7.699,88.355 7.706,88.346 7.706,88.343 V 86.876 L 7.441,86.61 H 6.51 Z"
     inkscape:connector-curvature="0"
     style="fill:#ffffff" /></g>
                
                
                <g
   id="g1211"
   transform="rotate(180,13.2955,87.6075)"><path
     id="path752"
     d="m 11.097,86.337 c 0.005,0 0.017,10e-4 0.034,0.004 0.018,0.002 0.029,0.003 0.035,0.003 0.018,0.016 0.048,0.042 0.093,0.078 0.044,0.037 0.091,0.077 0.141,0.12 0.05,0.043 0.096,0.083 0.141,0.121 0.045,0.038 0.074,0.064 0.089,0.08 0.03,0.028 0.068,0.064 0.114,0.108 0.046,0.044 0.089,0.088 0.131,0.131 0.042,0.043 0.078,0.081 0.108,0.112 0.03,0.031 0.045,0.049 0.045,0.052 v 1.66 c 0,0.005 -0.008,0.017 -0.024,0.034 -0.017,0.018 -0.027,0.028 -0.033,0.03 -0.005,0.003 -0.012,0.005 -0.021,0.006 -0.009,10e-4 -0.016,0.002 -0.021,0.002 -0.005,0 -0.012,-0.001 -0.019,-0.002 -0.008,-0.001 -0.013,-0.002 -0.015,-0.002 -0.013,-0.005 -0.032,-0.017 -0.059,-0.034 -0.026,-0.018 -0.04,-0.029 -0.04,-0.034 V 87.81 h -1.265 v 0.996 c 0,0.005 -0.013,0.017 -0.038,0.034 -0.025,0.017 -0.042,0.028 -0.049,0.03 -0.008,0.003 -0.016,0.005 -0.025,0.006 -0.009,10e-4 -0.016,0.002 -0.021,0.002 -0.005,0 -0.015,-0.001 -0.03,-0.004 C 10.355,88.869 10.341,88.857 10.325,88.84 10.308,88.822 10.3,88.811 10.3,88.806 c 0,-1.064 0.008,-1.606 0.023,-1.628 0.015,-0.022 0.034,-0.047 0.055,-0.074 0.021,-0.028 0.043,-0.057 0.066,-0.086 0.023,-0.029 0.042,-0.054 0.057,-0.074 0.015,-0.018 0.039,-0.047 0.07,-0.087 0.031,-0.041 0.065,-0.082 0.101,-0.124 0.035,-0.041 0.068,-0.08 0.099,-0.115 0.03,-0.036 0.051,-0.06 0.061,-0.072 0.01,-0.013 0.026,-0.03 0.047,-0.052 0.021,-0.022 0.043,-0.043 0.064,-0.064 0.021,-0.021 0.041,-0.04 0.057,-0.057 0.016,-0.017 0.027,-0.026 0.032,-0.029 0.002,0 0.012,-10e-4 0.028,-0.003 0.017,-0.003 0.029,-0.004 0.037,-0.004 z m 0,0.342 c -0.013,0.015 -0.035,0.041 -0.066,0.078 -0.032,0.036 -0.065,0.076 -0.101,0.119 -0.036,0.043 -0.069,0.084 -0.101,0.122 -0.032,0.038 -0.053,0.064 -0.063,0.079 -0.013,0.019 -0.03,0.041 -0.053,0.069 -0.022,0.027 -0.044,0.056 -0.064,0.085 -0.02,0.029 -0.039,0.055 -0.055,0.076 -0.016,0.021 -0.026,0.033 -0.028,0.036 -0.005,0.01 -0.011,0.032 -0.019,0.066 -0.008,0.034 -0.011,0.057 -0.011,0.066 h 1.28 c 0,-0.008 -0.002,-0.021 -0.005,-0.04 -0.004,-0.019 -0.008,-0.039 -0.014,-0.061 -0.005,-0.021 -0.011,-0.041 -0.017,-0.059 -0.006,-0.019 -0.012,-0.031 -0.017,-0.038 -0.002,-0.005 -0.014,-0.02 -0.034,-0.042 -0.02,-0.022 -0.045,-0.048 -0.074,-0.076 -0.029,-0.027 -0.059,-0.057 -0.087,-0.085 -0.029,-0.029 -0.053,-0.052 -0.07,-0.067 C 11.482,86.994 11.456,86.973 11.42,86.941 11.383,86.91 11.343,86.877 11.3,86.84 11.257,86.805 11.217,86.772 11.178,86.741 11.139,86.71 11.112,86.691 11.097,86.679 Z"
     inkscape:connector-curvature="0"
     style="fill:#ffffff" /><path
     id="path754"
     d="m 12.43,86.344 h 1.266 l 0.463,0.468 v 1.729 c 0,0.002 -0.008,0.013 -0.024,0.03 -0.017,0.018 -0.03,0.03 -0.04,0.038 -0.013,0.01 -0.032,0.025 -0.059,0.045 -0.026,0.021 -0.054,0.041 -0.082,0.062 -0.028,0.02 -0.054,0.039 -0.078,0.057 -0.024,0.018 -0.04,0.029 -0.047,0.034 -0.015,0.013 -0.04,0.027 -0.074,0.044 -0.034,0.017 -0.054,0.024 -0.059,0.024 H 12.43 Z m 0.266,2.265 h 0.866 c 0.008,0 0.029,-0.009 0.063,-0.025 0.034,-0.016 0.058,-0.03 0.07,-0.043 0.015,-0.011 0.034,-0.026 0.057,-0.048 0.023,-0.021 0.044,-0.043 0.065,-0.064 0.02,-0.021 0.038,-0.041 0.053,-0.058 0.015,-0.016 0.022,-0.025 0.022,-0.028 V 86.876 L 13.626,86.61 h -0.931 v 1.999 z"
     inkscape:connector-curvature="0"
     style="fill:#ffffff" /><path
     id="path756"
     d="m 14.562,86.344 h 1.266 l 0.463,0.468 v 1.729 c 0,0.002 -0.008,0.013 -0.024,0.03 -0.017,0.018 -0.03,0.03 -0.04,0.038 -0.013,0.01 -0.032,0.025 -0.059,0.045 -0.026,0.021 -0.054,0.041 -0.082,0.062 -0.028,0.02 -0.054,0.039 -0.078,0.057 -0.024,0.018 -0.04,0.029 -0.047,0.034 -0.015,0.013 -0.04,0.027 -0.074,0.044 -0.034,0.017 -0.054,0.024 -0.059,0.024 h -1.266 z m 0.266,2.265 h 0.866 c 0.008,0 0.029,-0.009 0.063,-0.025 0.034,-0.016 0.058,-0.03 0.07,-0.043 0.015,-0.011 0.034,-0.026 0.057,-0.048 0.023,-0.021 0.044,-0.043 0.065,-0.064 0.02,-0.021 0.038,-0.041 0.053,-0.058 0.015,-0.016 0.022,-0.025 0.022,-0.028 V 86.876 L 15.758,86.61 h -0.931 v 1.999 z"
     inkscape:connector-curvature="0"
     style="fill:#ffffff" /></g>
            </g>
            <g
   id="g766">
                
                
                <g
   id="g1216"
   transform="rotate(180,21.2765,87.6415)"><path
     id="path760"
     d="m 18.221,88.439 c 0,-0.005 0.001,-0.017 0.004,-0.034 0.005,-0.008 0.016,-0.02 0.032,-0.036 0.016,-0.016 0.027,-0.025 0.03,-0.028 0.004,-0.002 0.01,-0.004 0.017,-0.006 0.008,-10e-4 0.014,-0.002 0.019,-0.002 0.005,0 0.012,0.001 0.019,0.002 0.008,0.002 0.013,0.002 0.015,0.002 0.01,0.021 0.033,0.048 0.068,0.082 0.036,0.034 0.074,0.069 0.116,0.104 0.042,0.035 0.083,0.067 0.124,0.095 0.041,0.028 0.071,0.046 0.091,0.054 0.003,0.002 0.018,0.005 0.046,0.007 0.028,0.003 0.06,0.006 0.095,0.008 0.036,0.003 0.071,0.005 0.106,0.006 0.036,0.001 0.065,0.002 0.087,0.002 0.013,0 0.035,-10e-4 0.066,-0.002 0.032,-0.001 0.065,-0.003 0.099,-0.006 0.034,-0.002 0.067,-0.005 0.099,-0.008 0.031,-0.002 0.054,-0.005 0.066,-0.007 0.008,-0.008 0.021,-0.021 0.042,-0.038 0.021,-0.017 0.041,-0.038 0.063,-0.06 0.022,-0.022 0.041,-0.042 0.06,-0.063 0.018,-0.021 0.03,-0.034 0.037,-0.042 0.008,-0.01 0.02,-0.031 0.036,-0.064 0.017,-0.032 0.026,-0.056 0.029,-0.068 0.002,-0.002 0.004,-0.017 0.005,-0.042 0.002,-0.025 0.002,-0.044 0.002,-0.057 0,-0.013 0,-0.031 -0.002,-0.057 -0.001,-0.025 -0.003,-0.04 -0.005,-0.042 0,-0.01 -0.01,-0.032 -0.027,-0.064 -0.018,-0.033 -0.03,-0.056 -0.038,-0.068 -0.013,-0.018 -0.029,-0.04 -0.051,-0.066 -0.021,-0.027 -0.043,-0.053 -0.064,-0.078 -0.021,-0.025 -0.041,-0.047 -0.058,-0.064 -0.017,-0.017 -0.025,-0.027 -0.028,-0.027 h -0.729 l -0.467,-0.497 v -0.468 l 0.467,-0.464 h 0.931 c 0.003,0 0.013,0.009 0.029,0.025 0.016,0.017 0.028,0.029 0.036,0.039 0.01,0.013 0.024,0.033 0.045,0.06 0.021,0.027 0.041,0.054 0.063,0.081 0.021,0.028 0.042,0.055 0.06,0.078 0.018,0.024 0.029,0.04 0.034,0.048 0.005,0.013 0.017,0.035 0.034,0.068 0.017,0.033 0.027,0.055 0.03,0.064 0.003,0.003 0.004,0.009 0.004,0.019 0,0.008 0,0.015 0,0.02 0,0.005 0,0.012 0,0.019 0,0.008 -10e-4,0.012 -0.004,0.012 -0.005,0.008 -0.016,0.02 -0.032,0.036 -0.016,0.016 -0.027,0.026 -0.032,0.028 -0.003,0.003 -0.014,0.005 -0.032,0.006 -0.02,0.001 -0.034,0.002 -0.044,0.002 -0.008,0 -0.019,-10e-4 -0.032,-0.002 -0.013,-0.001 -0.022,-0.003 -0.024,-0.006 l -0.335,-0.33 h -0.665 c -0.013,0 -0.031,0.01 -0.057,0.03 -0.026,0.02 -0.052,0.044 -0.08,0.072 -0.028,0.027 -0.054,0.057 -0.08,0.087 -0.026,0.03 -0.042,0.056 -0.049,0.076 0,0.003 -0.001,0.01 -0.004,0.022 -0.003,0.012 -0.004,0.028 -0.006,0.046 -10e-4,0.018 -0.002,0.035 -0.004,0.054 -0.001,0.018 -0.001,0.031 -0.001,0.041 0,0.013 0,0.028 0.001,0.046 10e-4,0.018 0.003,0.035 0.004,0.054 0.001,0.018 0.003,0.033 0.006,0.047 0.003,0.014 0.004,0.022 0.004,0.025 0.01,0.022 0.027,0.05 0.051,0.083 0.024,0.033 0.05,0.065 0.08,0.097 0.029,0.032 0.057,0.06 0.082,0.082 0.025,0.022 0.043,0.034 0.053,0.034 h 0.866 c 0.006,0.008 0.017,0.024 0.032,0.052 0.017,0.026 0.027,0.043 0.033,0.051 0.005,0.008 0.018,0.024 0.037,0.05 0.021,0.025 0.042,0.053 0.065,0.081 0.022,0.029 0.043,0.058 0.063,0.084 0.019,0.026 0.031,0.044 0.036,0.051 0.005,0.008 0.011,0.019 0.019,0.031 0.008,0.012 0.015,0.026 0.021,0.041 0.006,0.016 0.012,0.029 0.017,0.04 0.005,0.012 0.008,0.019 0.008,0.021 0,0.002 0.001,0.013 0.002,0.032 10e-4,0.019 0.002,0.04 0.004,0.064 0.001,0.024 0.002,0.049 0.002,0.074 0,0.025 0,0.045 0,0.061 0,0.016 0,0.035 0,0.061 0,0.026 -0.001,0.051 -0.002,0.076 -0.002,0.025 -0.003,0.047 -0.004,0.064 -0.001,0.017 -0.002,0.028 -0.002,0.03 0,0.008 -0.009,0.029 -0.024,0.063 -0.017,0.034 -0.03,0.058 -0.04,0.07 -0.005,0.007 -0.017,0.023 -0.034,0.047 -0.018,0.024 -0.038,0.05 -0.06,0.078 -0.022,0.028 -0.042,0.055 -0.063,0.082 -0.021,0.026 -0.035,0.046 -0.045,0.059 -0.008,0.013 -0.021,0.027 -0.036,0.044 -0.017,0.017 -0.026,0.024 -0.029,0.024 h -0.931 c -0.312,-0.312 -0.468,-0.472 -0.469,-0.479 -0.002,-0.007 -0.003,-0.014 -0.003,-0.019 z"
     inkscape:connector-curvature="0"
     style="fill:#ffffff" /><path
     id="path762"
     d="m 20.418,86.406 h 1.265 l 0.464,0.468 v 1.729 c 0,0.002 -0.008,0.013 -0.024,0.03 -0.016,0.017 -0.03,0.03 -0.04,0.038 -0.013,0.01 -0.032,0.025 -0.059,0.045 -0.027,0.021 -0.055,0.041 -0.082,0.062 -0.028,0.02 -0.054,0.039 -0.078,0.057 -0.024,0.018 -0.04,0.029 -0.047,0.034 -0.016,0.013 -0.04,0.027 -0.074,0.044 -0.034,0.017 -0.055,0.024 -0.06,0.024 h -1.265 z m 0.266,2.266 h 0.866 c 0.008,0 0.028,-0.009 0.063,-0.025 0.035,-0.016 0.058,-0.03 0.07,-0.043 0.016,-0.011 0.034,-0.026 0.058,-0.048 0.022,-0.021 0.044,-0.043 0.064,-0.064 0.02,-0.021 0.038,-0.041 0.053,-0.058 0.016,-0.016 0.023,-0.025 0.023,-0.028 v -1.467 l -0.267,-0.266 h -0.931 v 1.999 z"
     inkscape:connector-curvature="0"
     style="fill:#ffffff" /><path
     id="path764"
     d="m 23.401,86.399 c 0.005,0 0.017,0.001 0.034,0.004 0.018,0.002 0.029,0.003 0.034,0.003 0.018,0.016 0.049,0.042 0.093,0.078 0.044,0.037 0.091,0.077 0.141,0.12 0.05,0.043 0.097,0.083 0.141,0.121 0.044,0.038 0.074,0.064 0.089,0.08 0.031,0.028 0.069,0.064 0.114,0.108 0.046,0.044 0.09,0.088 0.131,0.131 0.042,0.043 0.078,0.081 0.108,0.112 0.03,0.031 0.046,0.049 0.046,0.052 v 1.66 c 0,0.005 -0.008,0.017 -0.024,0.034 -0.016,0.017 -0.027,0.028 -0.032,0.03 -0.006,0.003 -0.013,0.005 -0.021,0.006 -0.008,10e-4 -0.016,0.002 -0.021,0.002 -0.005,0 -0.012,-0.001 -0.02,-0.002 C 24.207,88.937 24.201,88.936 24.199,88.936 24.186,88.931 24.167,88.919 24.14,88.902 24.113,88.884 24.1,88.873 24.1,88.868 v -0.996 h -1.266 v 0.996 c 0,0.005 -0.013,0.017 -0.038,0.034 -0.025,0.017 -0.042,0.028 -0.05,0.03 -0.007,0.003 -0.016,0.005 -0.024,0.006 -0.008,10e-4 -0.016,0.002 -0.021,0.002 -0.005,0 -0.016,-0.001 -0.03,-0.004 -0.013,-0.005 -0.027,-0.017 -0.044,-0.034 -0.017,-0.017 -0.024,-0.029 -0.024,-0.034 0,-1.064 0.007,-1.606 0.022,-1.628 0.015,-0.021 0.033,-0.047 0.055,-0.074 0.021,-0.028 0.044,-0.057 0.066,-0.086 0.023,-0.029 0.042,-0.054 0.058,-0.074 0.015,-0.018 0.038,-0.047 0.07,-0.087 0.031,-0.041 0.065,-0.082 0.101,-0.124 0.035,-0.041 0.068,-0.08 0.099,-0.115 0.03,-0.036 0.051,-0.06 0.061,-0.072 0.011,-0.013 0.026,-0.03 0.048,-0.052 0.022,-0.022 0.043,-0.043 0.064,-0.064 0.021,-0.021 0.041,-0.04 0.057,-0.057 0.017,-0.017 0.027,-0.026 0.033,-0.029 0.002,0 0.012,-0.001 0.028,-0.003 0.017,-0.003 0.029,-0.004 0.036,-0.004 z m 0,0.342 c -0.013,0.015 -0.035,0.041 -0.066,0.078 -0.032,0.036 -0.065,0.076 -0.102,0.119 -0.035,0.043 -0.068,0.084 -0.101,0.122 -0.031,0.038 -0.052,0.064 -0.063,0.079 -0.013,0.019 -0.03,0.041 -0.053,0.069 -0.023,0.027 -0.045,0.056 -0.064,0.085 -0.021,0.029 -0.039,0.055 -0.056,0.076 -0.017,0.021 -0.026,0.033 -0.028,0.036 -0.005,0.01 -0.012,0.032 -0.02,0.066 -0.007,0.034 -0.011,0.057 -0.011,0.066 h 1.28 c 0,-0.008 -0.002,-0.021 -0.006,-0.04 -0.004,-0.019 -0.008,-0.039 -0.013,-0.061 -0.006,-0.021 -0.011,-0.041 -0.018,-0.059 -0.006,-0.019 -0.012,-0.031 -0.017,-0.038 -0.003,-0.005 -0.015,-0.02 -0.034,-0.042 -0.021,-0.022 -0.045,-0.048 -0.074,-0.076 -0.029,-0.027 -0.059,-0.057 -0.088,-0.085 -0.029,-0.029 -0.053,-0.052 -0.07,-0.067 -0.015,-0.013 -0.041,-0.034 -0.077,-0.066 -0.037,-0.031 -0.077,-0.064 -0.12,-0.101 -0.043,-0.035 -0.084,-0.068 -0.122,-0.099 -0.035,-0.028 -0.062,-0.049 -0.077,-0.062 z"
     inkscape:connector-curvature="0"
     style="fill:#ffffff" /></g>
            </g>
            <g
   id="g774">
                
                
                <g
   id="g1226"
   transform="rotate(180,37.531,87.6435)"><path
     id="path768"
     d="m 34.409,86.406 c 0,-0.005 0.008,-0.016 0.024,-0.032 0.017,-0.016 0.027,-0.025 0.034,-0.028 0.006,-0.002 0.013,-0.004 0.021,-0.006 0.008,-0.001 0.015,-0.002 0.02,-0.002 0.005,0 0.017,0.002 0.034,0.004 0.015,0.006 0.035,0.017 0.061,0.032 0.025,0.017 0.038,0.027 0.038,0.032 v 1.601 l 0.635,0.597 h 0.064 c 0.089,-0.106 0.181,-0.218 0.277,-0.333 0.096,-0.115 0.192,-0.226 0.289,-0.332 v -1.532 c 0,-0.002 0.013,-0.012 0.04,-0.03 0.026,-0.018 0.046,-0.028 0.059,-0.034 0.002,0 0.008,0 0.015,-0.002 0.008,-10e-4 0.015,-0.002 0.02,-0.002 0.005,0 0.017,0.002 0.034,0.004 0.01,0.006 0.023,0.017 0.04,0.032 0.017,0.017 0.024,0.027 0.024,0.032 v 1.665 c 0,0.002 -0.008,0.014 -0.022,0.034 -0.016,0.021 -0.033,0.045 -0.054,0.074 -0.021,0.029 -0.042,0.058 -0.064,0.087 -0.022,0.029 -0.042,0.053 -0.057,0.07 -0.016,0.021 -0.04,0.05 -0.072,0.09 -0.033,0.039 -0.067,0.08 -0.103,0.123 -0.036,0.043 -0.068,0.082 -0.099,0.118 -0.031,0.035 -0.051,0.058 -0.062,0.068 -0.013,0.013 -0.029,0.03 -0.049,0.053 -0.021,0.023 -0.041,0.045 -0.062,0.064 -0.02,0.021 -0.039,0.039 -0.057,0.056 -0.018,0.017 -0.028,0.025 -0.03,0.028 -0.003,0.003 -0.013,0.005 -0.03,0.008 -0.018,0.002 -0.032,0.004 -0.042,0.004 -0.008,0 -0.019,-0.002 -0.034,-0.004 -0.016,-0.003 -0.024,-0.005 -0.026,-0.008 l -0.866,-0.866 z"
     inkscape:connector-curvature="0"
     style="fill:#ffffff" /><path
     id="path770"
     d="m 37.062,86.41 h 0.862 l 0.468,0.464 c 0,0.003 10e-4,0.008 0.002,0.016 0.001,0.007 0.002,0.014 0.002,0.019 0,0.005 -10e-4,0.012 -0.002,0.02 -10e-4,0.007 -0.002,0.013 -0.002,0.015 -0.005,0.008 -0.016,0.02 -0.032,0.036 -0.016,0.016 -0.028,0.026 -0.036,0.028 -0.003,0.003 -0.008,0.005 -0.016,0.006 -0.007,0.001 -0.014,0.002 -0.019,0.002 -0.005,0 -0.012,-0.001 -0.019,-0.002 -0.008,-10e-4 -0.012,-0.003 -0.012,-0.006 l -0.399,-0.33 h -0.733 l -0.266,0.266 v 1.463 c 0,0.003 0.008,0.013 0.022,0.028 0.016,0.017 0.034,0.036 0.056,0.058 0.022,0.022 0.043,0.043 0.066,0.064 0.022,0.021 0.042,0.037 0.057,0.048 0.013,0.01 0.035,0.023 0.068,0.041 0.033,0.019 0.055,0.027 0.064,0.027 0.003,0 0.017,0 0.04,0.002 0.024,0.001 0.052,0.002 0.082,0.002 0.033,0 0.065,0 0.097,10e-4 0.032,0.002 0.058,0.002 0.078,0.002 0.02,0 0.047,0 0.08,-0.002 0.032,-10e-4 0.064,-10e-4 0.095,-10e-4 0.033,0 0.062,-0.001 0.085,-0.002 0.024,-0.002 0.038,-0.002 0.04,-0.002 0.005,0 0.025,-0.009 0.06,-0.025 0.035,-0.016 0.059,-0.03 0.073,-0.043 0.006,-0.003 0.018,-0.011 0.036,-0.023 0.02,-0.013 0.04,-0.026 0.063,-0.042 0.022,-0.015 0.044,-0.028 0.064,-0.041 0.02,-0.013 0.032,-0.021 0.038,-0.027 0.005,-0.002 0.015,-0.007 0.028,-0.013 0.014,-0.007 0.027,-0.014 0.042,-0.021 0.014,-0.007 0.026,-0.015 0.038,-0.021 0.011,-0.006 0.018,-0.01 0.021,-0.01 0.003,0 0.008,0 0.018,-0.002 0.009,-0.001 0.016,-0.002 0.021,-0.002 0.005,0 10.756974,2.2806 10.771974,2.2826 C 49.071974,90.6906 38.342,88.423 38.358,88.439 l 0.032,0.032 c 0,0.003 10e-4,0.013 0.002,0.029 10e-4,0.016 0.002,0.029 0.002,0.039 0,0.011 -10e-4,0.032 -0.004,0.065 -0.003,0.005 -0.012,0.016 -0.028,0.032 -0.016,0.016 -0.03,0.028 -0.04,0.036 -0.013,0.01 -0.032,0.025 -0.059,0.045 -0.026,0.021 -0.054,0.041 -0.082,0.062 -0.027,0.02 -0.054,0.039 -0.078,0.057 -0.023,0.018 -0.04,0.029 -0.047,0.034 -0.008,0.005 -0.019,0.012 -0.032,0.019 -0.015,0.008 -0.028,0.016 -0.042,0.023 -0.014,0.007 -0.026,0.014 -0.038,0.019 -0.012,0.005 -0.019,0.008 -0.021,0.008 h -0.862 c -0.002,0 -0.01,-0.003 -0.021,-0.008 C 37.028,88.926 37.015,88.92 37,88.912 36.984,88.904 36.971,88.896 36.958,88.889 36.945,88.882 36.936,88.875 36.928,88.87 36.92,88.865 36.905,88.853 36.88,88.836 36.857,88.818 36.83,88.799 36.803,88.779 36.775,88.758 36.747,88.738 36.721,88.717 36.695,88.697 36.675,88.682 36.662,88.672 36.649,88.664 36.635,88.652 36.618,88.636 36.601,88.62 36.594,88.609 36.594,88.604 v -1.729 z"
     inkscape:connector-curvature="0"
     style="fill:#ffffff"
     sodipodi:nodetypes="ccccsccsccscccccscscccscscscscsscccsccccscscscsscsccccccssssccssccccsscc" /><path
     id="path772"
     d="m 39.319,86.41 h 0.862 l 0.468,0.464 c 0,0.003 10e-4,0.008 0.002,0.016 10e-4,0.007 0.002,0.014 0.002,0.019 0,0.005 -10e-4,0.012 -0.002,0.02 -0.001,0.007 -0.002,0.013 -0.002,0.015 -0.005,0.008 -0.016,0.02 -0.032,0.036 -0.016,0.016 -0.028,0.026 -0.036,0.028 -0.003,0.003 -0.008,0.005 -0.016,0.006 -0.007,0.001 -0.014,0.002 -0.019,0.002 -0.005,0 -0.012,-0.001 -0.019,-0.002 -0.008,-10e-4 -0.012,-0.003 -0.012,-0.006 l -0.399,-0.33 h -0.733 l -0.266,0.266 v 1.463 c 0,0.003 0.008,0.013 0.022,0.028 0.016,0.017 0.034,0.036 0.056,0.058 0.022,0.022 0.043,0.043 0.066,0.064 0.022,0.021 0.042,0.037 0.057,0.048 0.013,0.01 0.035,0.023 0.068,0.041 0.033,0.019 0.055,0.027 0.064,0.027 0.003,0 0.017,0 0.04,0.002 0.024,0.001 0.052,0.002 0.082,0.002 0.033,0 0.065,0 0.097,10e-4 0.032,0.002 0.058,0.002 0.078,0.002 0.02,0 0.047,0 0.08,-0.002 0.032,-10e-4 0.064,-10e-4 0.095,-10e-4 0.033,0 0.062,-0.001 0.085,-0.002 0.024,-0.002 0.038,-0.002 0.04,-0.002 0.005,0 0.025,-0.009 0.06,-0.025 0.035,-0.016 0.059,-0.03 0.073,-0.043 0.006,-0.003 0.018,-0.011 0.036,-0.023 0.02,-0.013 0.04,-0.026 0.063,-0.042 0.022,-0.015 0.044,-0.028 0.064,-0.041 0.02,-0.013 0.032,-0.021 0.038,-0.027 0.005,-0.002 0.015,-0.007 0.028,-0.013 0.014,-0.007 0.027,-0.014 0.042,-0.021 0.014,-0.007 0.026,-0.015 0.038,-0.021 0.011,-0.006 0.018,-0.01 0.021,-0.01 0.003,0 0.008,0 0.018,-0.002 0.009,-0.001 0.016,-0.002 0.021,-0.002 0.005,0 0.015,0.002 0.03,0.004 0.008,0.005 0.02,0.016 0.036,0.032 0.016,0.016 0.027,0.027 0.032,0.032 0,0.003 0.001,0.013 0.002,0.029 10e-4,0.016 0.002,0.029 0.002,0.039 0,0.011 -0.001,0.032 -0.004,0.065 -0.003,0.005 -0.012,0.016 -0.028,0.032 -0.016,0.016 -0.03,0.028 -0.04,0.036 -0.013,0.01 -0.032,0.025 -0.059,0.045 -0.026,0.021 -0.054,0.041 -0.082,0.062 -0.027,0.02 -0.054,0.039 -0.078,0.057 -0.023,0.018 -0.04,0.029 -0.047,0.034 -0.008,0.005 -0.019,0.012 -0.032,0.019 -0.015,0.008 -0.028,0.016 -0.042,0.023 -0.014,0.007 -0.026,0.014 -0.038,0.019 -0.012,0.005 -0.019,0.008 -0.021,0.008 h -0.862 c -0.002,0 -0.01,-0.003 -0.021,-0.008 -0.012,-0.005 -0.025,-0.011 -0.04,-0.019 -0.016,-0.008 -0.029,-0.016 -0.042,-0.023 -0.013,-0.007 -0.022,-0.014 -0.03,-0.019 -0.008,-0.005 -0.023,-0.017 -0.048,-0.034 -0.023,-0.018 -0.05,-0.037 -0.077,-0.057 -0.028,-0.021 -0.056,-0.041 -0.082,-0.062 -0.026,-0.02 -0.046,-0.035 -0.059,-0.045 -0.013,-0.008 -0.027,-0.02 -0.044,-0.036 -0.017,-0.016 -0.024,-0.027 -0.024,-0.032 v -1.729 z"
     inkscape:connector-curvature="0"
     style="fill:#ffffff" /></g>
            </g>
            <g
   id="g782">
                
                
                <g
   id="g1221"
   transform="rotate(180,29.635,87.641)"><path
     id="path776"
     d="m 26.542,88.439 c 0,-0.005 10e-4,-0.017 0.003,-0.034 0.006,-0.008 0.017,-0.02 0.033,-0.036 0.016,-0.017 0.026,-0.025 0.03,-0.028 0.004,-0.002 0.009,-0.004 0.017,-0.006 0.008,-10e-4 0.014,-0.002 0.02,-0.002 0.005,0 0.011,0.001 0.019,0.002 0.008,0.002 0.013,0.002 0.016,0.002 0.01,0.021 0.032,0.048 0.068,0.082 0.035,0.034 0.074,0.069 0.115,0.104 0.042,0.035 0.083,0.067 0.124,0.095 0.04,0.028 0.07,0.046 0.091,0.054 0.003,0.002 0.018,0.005 0.046,0.007 0.027,0.003 0.06,0.006 0.095,0.008 0.035,0.003 0.071,0.005 0.106,0.006 0.035,0.001 0.064,0.002 0.088,0.002 0.013,0 0.034,-10e-4 0.066,-0.002 0.031,-0.001 0.064,-0.003 0.099,-0.006 0.034,-0.002 0.067,-0.005 0.099,-0.008 0.031,-0.002 0.054,-0.005 0.066,-0.007 0.008,-0.008 0.021,-0.021 0.042,-0.038 0.021,-0.017 0.041,-0.038 0.063,-0.06 0.022,-0.022 0.041,-0.042 0.06,-0.063 0.018,-0.021 0.03,-0.034 0.037,-0.042 0.008,-0.01 0.02,-0.031 0.036,-0.064 0.017,-0.032 0.026,-0.056 0.029,-0.068 0.002,-0.002 0.004,-0.017 0.005,-0.042 0.002,-0.025 0.002,-0.044 0.002,-0.057 0,-0.013 0,-0.031 -0.002,-0.057 -0.001,-0.025 -0.003,-0.04 -0.005,-0.042 0,-0.01 -0.01,-0.032 -0.027,-0.064 -0.018,-0.033 -0.03,-0.056 -0.038,-0.068 -0.013,-0.018 -0.029,-0.04 -0.051,-0.066 -0.021,-0.027 -0.043,-0.053 -0.064,-0.078 -0.021,-0.025 -0.041,-0.047 -0.058,-0.064 -0.017,-0.017 -0.025,-0.027 -0.028,-0.027 h -0.729 l -0.468,-0.497 v -0.468 l 0.468,-0.464 h 0.931 c 0.003,0 0.013,0.009 0.029,0.025 0.016,0.017 0.028,0.029 0.036,0.039 0.01,0.013 0.024,0.033 0.045,0.06 0.021,0.027 0.041,0.054 0.063,0.081 0.021,0.028 0.042,0.055 0.06,0.078 0.018,0.024 0.029,0.04 0.034,0.048 0.005,0.013 0.017,0.035 0.034,0.068 0.017,0.033 0.027,0.055 0.03,0.064 0.003,0.003 0.004,0.009 0.004,0.019 0,0.008 0,0.015 0,0.02 0,0.005 0,0.012 0,0.019 0,0.008 -10e-4,0.012 -0.004,0.012 -0.005,0.008 -0.016,0.02 -0.032,0.036 -0.016,0.016 -0.027,0.026 -0.032,0.028 -0.003,0.003 -0.014,0.005 -0.032,0.006 -0.02,0.001 -0.034,0.002 -0.044,0.002 -0.008,0 -0.019,-10e-4 -0.032,-0.002 -0.013,-0.001 -0.022,-0.003 -0.024,-0.006 l -0.335,-0.33 h -0.665 c -0.013,0 -0.031,0.01 -0.057,0.03 -0.026,0.02 -0.052,0.044 -0.08,0.072 -0.027,0.027 -0.055,0.057 -0.08,0.087 -0.025,0.03 -0.041,0.056 -0.049,0.076 0,0.003 -0.002,0.01 -0.004,0.022 -0.003,0.013 -0.005,0.028 -0.006,0.046 -0.001,0.018 -0.003,0.035 -0.004,0.054 -10e-4,0.018 -0.002,0.031 -0.002,0.041 0,0.013 0.001,0.028 0.002,0.046 0.001,0.018 0.003,0.035 0.004,0.054 0.001,0.018 0.003,0.033 0.006,0.047 0.002,0.014 0.004,0.022 0.004,0.025 0.01,0.022 0.027,0.05 0.051,0.083 0.024,0.033 0.051,0.065 0.08,0.097 0.029,0.032 0.057,0.06 0.082,0.082 0.025,0.022 0.043,0.034 0.053,0.034 h 0.866 c 0.006,0.008 0.017,0.024 0.032,0.052 0.017,0.026 0.027,0.043 0.033,0.051 0.005,0.008 0.018,0.024 0.037,0.05 0.021,0.025 0.042,0.053 0.065,0.081 0.022,0.029 0.043,0.058 0.063,0.084 0.019,0.026 0.031,0.044 0.036,0.051 0.005,0.008 0.011,0.019 0.019,0.031 0.008,0.012 0.015,0.026 0.021,0.041 0.006,0.016 0.012,0.029 0.017,0.04 0.005,0.012 0.008,0.019 0.008,0.021 0,0.002 0.001,0.013 0.002,0.032 10e-4,0.019 0.002,0.04 0.004,0.064 0.001,0.024 0.002,0.049 0.002,0.074 0,0.025 0,0.045 0,0.061 0,0.016 0,0.035 0,0.061 0,0.026 -0.001,0.051 -0.002,0.076 -0.002,0.025 -0.003,0.047 -0.004,0.064 -0.001,0.017 -0.002,0.028 -0.002,0.03 0,0.008 -0.009,0.029 -0.024,0.063 -0.017,0.034 -0.03,0.058 -0.04,0.07 -0.005,0.007 -0.017,0.023 -0.034,0.047 -0.018,0.024 -0.038,0.05 -0.06,0.078 -0.022,0.028 -0.042,0.055 -0.063,0.082 -0.021,0.026 -0.035,0.046 -0.045,0.059 -0.008,0.013 -0.021,0.027 -0.036,0.044 -0.017,0.017 -0.026,0.024 -0.029,0.024 h -0.931 c -0.312,-0.312 -0.468,-0.472 -0.469,-0.479 -0.005,-0.007 -0.005,-0.014 -0.005,-0.019 z"
     inkscape:connector-curvature="0"
     style="fill:#ffffff" /><path
     id="path778"
     d="m 29.205,86.41 h 0.862 l 0.468,0.464 c 0,0.003 0.001,0.008 0.002,0.016 0.001,0.007 0.002,0.014 0.002,0.019 0,0.005 -0.001,0.012 -0.002,0.02 -10e-4,0.007 -0.002,0.013 -0.002,0.015 -0.005,0.008 -0.016,0.02 -0.032,0.036 -0.016,0.016 -0.028,0.026 -0.036,0.028 -0.003,0.003 -0.008,0.005 -0.016,0.006 -0.007,0.001 -0.014,0.002 -0.019,0.002 -0.005,0 -0.012,-0.001 -0.019,-0.002 -0.008,-10e-4 -0.012,-0.003 -0.012,-0.006 l -0.399,-0.33 H 29.27 l -0.266,0.266 v 1.463 c 0,0.003 0.008,0.013 0.022,0.028 0.016,0.017 0.034,0.036 0.056,0.058 0.022,0.022 0.043,0.043 0.066,0.064 0.022,0.021 0.042,0.037 0.057,0.048 0.013,0.01 0.035,0.023 0.068,0.041 0.033,0.019 0.055,0.027 0.064,0.027 0.003,0 0.017,0 0.04,0.002 0.024,0.001 0.052,0.002 0.082,0.002 0.033,0 0.065,0 0.097,10e-4 0.032,0.002 0.058,0.002 0.078,0.002 0.02,0 0.047,0 0.08,-0.002 0.032,-10e-4 0.064,-10e-4 0.095,-10e-4 0.033,0 0.062,-0.001 0.085,-0.002 0.024,-0.002 0.038,-0.002 0.04,-0.002 0.005,0 0.025,-0.009 0.06,-0.025 0.035,-0.016 0.059,-0.03 0.073,-0.043 0.006,-0.003 0.018,-0.011 0.036,-0.023 0.02,-0.013 0.04,-0.026 0.063,-0.042 0.022,-0.015 0.044,-0.028 0.064,-0.041 0.02,-0.013 0.032,-0.021 0.038,-0.027 0.005,-0.002 0.015,-0.007 0.028,-0.013 0.014,-0.007 0.027,-0.014 0.042,-0.021 0.014,-0.007 0.026,-0.015 0.038,-0.021 0.011,-0.006 0.018,-0.01 0.021,-0.01 0.003,0 0.008,0 0.018,-0.002 0.009,-0.001 0.016,-0.002 0.021,-0.002 0.005,0 0.015,0.002 0.03,0.004 0.008,0.005 0.02,0.016 0.036,0.032 0.016,0.016 0.027,0.027 0.032,0.032 0,0.003 0.001,0.013 0.002,0.029 10e-4,0.016 0.002,0.029 0.002,0.039 0,0.011 -0.001,0.032 -0.004,0.065 -0.003,0.005 -0.012,0.016 -0.028,0.032 -0.016,0.016 -0.03,0.028 -0.04,0.036 -0.013,0.01 -0.032,0.025 -0.059,0.045 -0.026,0.021 -0.054,0.041 -0.082,0.062 -0.027,0.02 -0.054,0.039 -0.078,0.057 -0.023,0.018 -0.04,0.029 -0.047,0.034 -0.008,0.005 -0.019,0.012 -0.032,0.019 -0.015,0.008 -0.028,0.016 -0.042,0.023 -0.014,0.007 -0.026,0.014 -0.038,0.019 -0.012,0.005 -0.019,0.008 -0.021,0.008 h -0.862 c -0.002,0 -0.01,-0.003 -0.021,-0.008 -0.012,-0.005 -0.025,-0.011 -0.04,-0.019 -0.016,-0.008 -0.029,-0.016 -0.042,-0.023 -0.013,-0.007 -0.022,-0.014 -0.03,-0.019 -0.008,-0.005 -0.023,-0.017 -0.048,-0.034 -0.023,-0.018 -0.05,-0.037 -0.077,-0.057 -0.028,-0.021 -0.056,-0.041 -0.082,-0.062 -0.026,-0.02 -0.046,-0.035 -0.059,-0.045 -0.013,-0.008 -0.027,-0.02 -0.044,-0.036 -0.017,-0.016 -0.024,-0.027 -0.024,-0.032 v -1.729 z"
     inkscape:connector-curvature="0"
     style="fill:#ffffff" /><path
     id="path780"
     d="m 30.995,86.476 c 0,-0.006 0.008,-0.017 0.024,-0.035 0.017,-0.018 0.027,-0.027 0.034,-0.03 0.006,-0.002 0.013,-0.004 0.021,-0.005 0.008,-0.002 0.015,-0.002 0.02,-0.002 0.005,0 0.017,0.001 0.034,0.003 0.015,0.006 0.035,0.017 0.061,0.034 0.025,0.019 0.038,0.029 0.038,0.035 v 2.23 h 1.433 c 0.005,0 0.016,0.013 0.032,0.038 0.016,0.025 0.027,0.045 0.032,0.061 0.003,0 0.004,0.005 0.004,0.015 0,0.008 0,0.015 0,0.02 0,0.005 0,0.012 0,0.019 0,0.008 -0.001,0.012 -0.004,0.012 -0.005,0.013 -0.016,0.027 -0.032,0.044 -0.016,0.017 -0.027,0.024 -0.032,0.024 h -1.664 v -2.463 z"
     inkscape:connector-curvature="0"
     style="fill:#ffffff" /></g>
            </g>
        </g>
        <path
   style="fill:#ffffff"
   inkscape:connector-curvature="0"
   d="m 3.167,77.739 v 7.75 H 39 v -7.75 z m 35.062,7.105 H 3.797 V 78.5 H 38.23 v 6.344 z"
   gorn="0.2.1"
   id="box" />
    </g><g
   id="g791"
   transform="rotate(180,21.26,45.355)">
        <rect
   style="fill:#fee24d"
   x="30.594"
   y="44.063"
   height="8.375"
   width="4.5"
   id="rect787" />
        <rect
   style="fill:#e5ac23"
   x="30.594"
   y="50.655998"
   height="1.781"
   width="4.5"
   id="rect789" />
    </g><g
   id="g799"
   transform="rotate(180,21.26,45.355)">
        <rect
   style="fill:#95825d"
   x="11.092"
   y="32.813999"
   height="3.813"
   width="1.939"
   id="rect793" />
        <rect
   style="fill:#999999"
   x="11.092"
   y="32.813999"
   height="0.85799998"
   width="1.939"
   id="rect795" />
        <rect
   style="fill:#999999"
   x="11.091"
   y="35.768002"
   height="0.85799998"
   width="1.9400001"
   id="rect797" />
    </g><g
   id="g807"
   transform="rotate(180,21.26,45.355)">
        <rect
   style="fill:#95825d"
   x="30.167999"
   y="69.064003"
   height="3.813"
   width="2.125"
   id="rect801" />
        <rect
   style="fill:#999999"
   x="30.167999"
   y="69.064003"
   height="0.85799998"
   width="2.125"
   id="rect803" />
        <rect
   style="fill:#999999"
   x="30.167"
   y="72.018997"
   height="0.85799998"
   width="2.1259999"
   id="rect805" />
    </g><g
   id="g815"
   transform="rotate(180,21.26,45.355)">
        <rect
   style="fill:#020202"
   x="11.727"
   y="48.854"
   height="4.1160002"
   width="2.266"
   id="rect809" />
        <rect
   style="fill:#999999"
   x="11.727"
   y="52.313"
   height="0.65499997"
   width="2.266"
   id="rect811" />
        <rect
   style="fill:#999999"
   x="11.727"
   y="48.854"
   height="0.65799999"
   width="2.266"
   id="rect813" />
    </g><g
   id="g823"
   transform="rotate(180,21.26,45.355)">
        <rect
   style="fill:#020202"
   x="17.112"
   y="48.854"
   height="4.1160002"
   width="2.266"
   id="rect817" />
        <rect
   style="fill:#999999"
   x="17.112"
   y="52.313"
   height="0.65499997"
   width="2.266"
   id="rect819" />
        <rect
   style="fill:#999999"
   x="17.112"
   y="48.854"
   height="0.65799999"
   width="2.266"
   id="rect821" />
    </g><g
   id="g831"
   transform="rotate(180,21.26,45.355)">
        <rect
   style="fill:#020202"
   x="7.3099999"
   y="68.913002"
   height="4.1160002"
   width="2.266"
   id="rect825" />
        <rect
   style="fill:#999999"
   x="7.3099999"
   y="72.373001"
   height="0.65499997"
   width="2.266"
   id="rect827" />
        <rect
   style="fill:#999999"
   x="7.3099999"
   y="68.913002"
   height="0.65799999"
   width="2.266"
   id="rect829" />
    </g><g
   id="g839"
   transform="rotate(180,21.26,45.355)">
        <rect
   style="fill:#020202"
   x="24.086"
   y="69.064003"
   height="4.1160002"
   width="2.266"
   id="rect833" />
        <rect
   style="fill:#999999"
   x="24.086"
   y="72.524002"
   height="0.65499997"
   width="2.266"
   id="rect835" />
        <rect
   style="fill:#999999"
   x="24.086"
   y="69.064003"
   height="0.65799999"
   width="2.266"
   id="rect837" />
    </g><g
   id="g847"
   transform="rotate(180,21.26,45.355)">
        <rect
   style="fill:#020202"
   x="28.18"
   y="33.025002"
   height="4.1160002"
   width="2.266"
   id="rect841" />
        <rect
   style="fill:#999999"
   x="28.18"
   y="36.485001"
   height="0.65499997"
   width="2.266"
   id="rect843" />
        <rect
   style="fill:#999999"
   x="28.18"
   y="33.025002"
   height="0.65799999"
   width="2.266"
   id="rect845" />
    </g><g
   id="g867"
   transform="rotate(180,21.26,45.355)">
        <rect
   style="fill:#999999"
   x="29.438"
   y="60.858002"
   height="1.349"
   width="1.6390001"
   id="rect849" />
        <rect
   style="fill:#999999"
   x="35.627998"
   y="58.278999"
   height="1.214"
   width="1.42"
   id="rect851" />
        <rect
   style="fill:#999999"
   x="35.627998"
   y="63.619999"
   height="1.173"
   width="1.42"
   id="rect853" />
        <g
   id="g865">
            <rect
   style="fill:#303030"
   x="31.375"
   y="57.937"
   height="7.033"
   width="3.954"
   id="rect855" />
            <polygon
   style="fill:#3d3e3d"
   points="35.628,57.638 35.628,65.258 35.628,65.269 35.32,64.97 35.32,57.937 "
   id="polygon857" />
            <polygon
   points="31.076,57.638 31.384,57.937 31.384,57.937 31.384,64.97 31.076,65.27 31.076,64.97 31.076,57.937 "
   id="polygon859" />
            <polygon
   style="fill:#1e1f1f"
   points="35.628,65.27 31.076,65.27 31.384,64.97 35.32,64.97 "
   id="polygon861" />
            <polygon
   style="fill:#1e1f1f"
   points="31.384,57.937 31.076,57.638 35.628,57.638 35.32,57.937 "
   id="polygon863" />
        </g>
    </g><g
   id="g887"
   transform="rotate(180,21.26,45.355)">
        <rect
   style="fill:#999999"
   x="22.218"
   y="60.938"
   height="1.349"
   width="1.64"
   id="rect869" />
        <rect
   style="fill:#999999"
   x="17.799"
   y="58.355"
   height="1.2130001"
   width="1.42"
   id="rect871" />
        <rect
   style="fill:#999999"
   x="17.799"
   y="63.695"
   height="1.174"
   width="1.42"
   id="rect873" />
        <g
   id="g885">
            <rect
   style="fill:#303030"
   x="19.537001"
   y="58.016998"
   height="7.033"
   width="2.4460001"
   id="rect875" />
            <polygon
   style="fill:#3d3e3d"
   points="22.218,65.349 22.218,57.729 22.218,57.718 21.983,58.017 21.983,65.05 "
   id="polygon877" />
            <polygon
   points="19.219,65.349 19.537,65.05 19.537,65.05 19.537,58.017 19.219,57.717 19.219,58.017 19.219,65.05 "
   id="polygon879" />
            <polygon
   style="fill:#1e1f1f"
   points="21.983,58.017 21.983,58.017 22.218,57.717 19.243,57.717 19.219,57.717 19.537,58.017 "
   id="polygon881" />
            <polygon
   style="fill:#1e1f1f"
   points="19.537,65.05 19.219,65.349 22.218,65.349 21.985,65.05 "
   id="polygon883" />
        </g>
    </g><g
   gorn="0.13"
   id="BH1750"
   transform="rotate(180,21.26,45.355)">
        <g
   id="g893">
            <rect
   style="fill:#333333"
   x="19.072001"
   y="32.125"
   height="6.5939999"
   width="3.5"
   id="rect889" />
            <rect
   style="fill:#232323"
   x="19.635"
   y="33.672001"
   height="3.234"
   width="2.375"
   id="rect891" />
        </g>
        <g
   id="g913">
            <g
   id="g899">
                <rect
   style="fill:#666766"
   x="22.01"
   y="30.990999"
   height="0.49900001"
   width="0.428"
   id="rect895" />
                <rect
   style="fill:#999999"
   x="22.01"
   y="31.49"
   height="0.63499999"
   width="0.428"
   id="rect897" />
            </g>
            <g
   id="g905">
                <rect
   style="fill:#666766"
   x="20.608"
   y="30.990999"
   height="0.49900001"
   width="0.428"
   id="rect901" />
                <rect
   style="fill:#999999"
   x="20.608"
   y="31.49"
   height="0.63499999"
   width="0.428"
   id="rect903" />
            </g>
            <g
   id="g911">
                <rect
   style="fill:#666766"
   x="19.207001"
   y="30.990999"
   height="0.49900001"
   width="0.428"
   id="rect907" />
                <rect
   style="fill:#999999"
   x="19.207001"
   y="31.49"
   height="0.63499999"
   width="0.428"
   id="rect909" />
            </g>
        </g>
        <g
   id="g933">
            <g
   id="g919">
                <rect
   style="fill:#666766"
   x="19.207001"
   y="39.339001"
   height="0.498"
   width="0.428"
   id="rect915" />
                <rect
   style="fill:#999999"
   x="19.207001"
   y="38.703999"
   height="0.63599998"
   width="0.428"
   id="rect917" />
            </g>
            <g
   id="g925">
                <rect
   style="fill:#666766"
   x="20.608"
   y="39.339001"
   height="0.498"
   width="0.428"
   id="rect921" />
                <rect
   style="fill:#999999"
   x="20.608"
   y="38.703999"
   height="0.63599998"
   width="0.428"
   id="rect923" />
            </g>
            <g
   id="g931">
                <rect
   style="fill:#666766"
   x="22.01"
   y="39.339001"
   height="0.498"
   width="0.428"
   id="rect927" />
                <rect
   style="fill:#999999"
   x="22.01"
   y="38.703999"
   height="0.63599998"
   width="0.428"
   id="rect929" />
            </g>
        </g>
    </g><g
   id="g952"
   transform="rotate(180,21.26,45.355)">
        <rect
   style="fill:#999999"
   x="12.099"
   y="58.962002"
   height="1.2130001"
   width="1.136"
   id="rect936" />
        <g
   id="g948">
            <rect
   style="fill:#303030"
   x="11.428"
   y="60.459"
   height="3.112"
   width="2.477"
   id="rect938" />
            <polygon
   style="fill:#3d3e3d"
   points="14.227,63.835 14.227,60.317 14.227,60.175 13.905,60.459 13.905,63.571 "
   id="polygon940" />
            <polygon
   points="11.428,63.571 11.428,63.571 11.428,60.459 11.106,60.175 11.106,63.571 11.106,63.719 11.106,63.835 "
   id="polygon942" />
            <polygon
   style="fill:#1e1f1f"
   points="13.905,60.459 13.905,60.459 14.227,60.175 14.142,60.175 11.13,60.175 11.106,60.175 11.428,60.459 "
   id="polygon944" />
            <polygon
   style="fill:#1e1f1f"
   points="11.428,63.571 11.106,63.835 14.227,63.835 13.907,63.571 "
   id="polygon946" />
        </g>
        <rect
   style="fill:#999999"
   x="12.099"
   y="63.834999"
   height="1.2130001"
   width="1.136"
   id="rect950" />
    </g><path
   style="fill:#f4c34d"
   inkscape:connector-curvature="0"
   d="m 7.198,87.002 c 3.13,0 5.667,-2.537 5.667,-5.667 0,-3.13 -2.537,-5.667 -5.667,-5.667 -3.13,0 -5.667,2.537 -5.667,5.667 0,3.13 2.537,5.667 5.667,5.667 z m 0,-10 c 2.393,0 4.333,1.94 4.333,4.333 0,2.393 -1.94,4.333 -4.333,4.333 -2.393,0 -4.333,-1.94 -4.333,-4.333 0,-2.393 1.94,-4.333 4.333,-4.333 z"
   id="path954" /><path
   style="fill:#f4c34d"
   inkscape:connector-curvature="0"
   d="m 35.323,87.002 c 3.13,0 5.667,-2.537 5.667,-5.667 0,-3.13 -2.537,-5.667 -5.667,-5.667 -3.13,0 -5.667,2.537 -5.667,5.667 0,3.13 2.537,5.667 5.667,5.667 z m 0,-10 c 2.393,0 4.333,1.94 4.333,4.333 0,2.393 -1.94,4.333 -4.333,4.333 -2.393,0 -4.333,-1.94 -4.333,-4.333 0,-2.393 1.941,-4.333 4.333,-4.333 z"
   id="path956" /><g
   gorn="0.17"
   id="Connector_group"
   transform="rotate(180,21.26,45.355)">
        <path
   style="fill:#9a916c"
   inkscape:connector-curvature="0"
   d="m 6.685,79.221 c -1.322,0 -2.393,1.072 -2.393,2.394 0,1.322 1.071,2.394 2.393,2.394 1.322,0 2.393,-1.071 2.393,-2.394 0,-1.322 -1.072,-2.394 -2.393,-2.394 z m 0,3.591 c -0.661,0 -1.197,-0.536 -1.197,-1.196 0,-0.662 0.536,-1.197 1.197,-1.197 0.661,0 1.197,0.535 1.197,1.197 0,0.659 -0.536,1.196 -1.197,1.196 z"
   gorn="0.17.0"
   id="connector12pin" />
        <path
   style="fill:#9a916c"
   inkscape:connector-curvature="0"
   d="m 13.883,79.221 c -1.322,0 -2.393,1.072 -2.393,2.394 0,1.322 1.071,2.394 2.393,2.394 1.322,0 2.393,-1.071 2.393,-2.394 0,-1.322 -1.071,-2.394 -2.393,-2.394 z m 0.001,3.591 c -0.661,0 -1.197,-0.536 -1.197,-1.196 0,-0.662 0.536,-1.197 1.197,-1.197 0.661,0 1.196,0.535 1.196,1.197 0,0.659 -0.535,1.196 -1.196,1.196 z"
   gorn="0.17.1"
   id="connector9pin" />
        <path
   style="fill:#9a916c"
   inkscape:connector-curvature="0"
   d="m 21.083,79.221 c -1.321,0 -2.393,1.072 -2.393,2.394 0,1.322 1.071,2.394 2.393,2.394 1.322,0 2.394,-1.071 2.394,-2.394 0,-1.322 -1.072,-2.394 -2.394,-2.394 z m 0.002,3.591 c -0.661,0 -1.197,-0.536 -1.197,-1.196 0,-0.662 0.536,-1.197 1.197,-1.197 0.661,0 1.196,0.535 1.196,1.197 0,0.659 -0.535,1.196 -1.196,1.196 z"
   gorn="0.17.2"
   id="connector10pin" />
        <path
   style="fill:#9a916c"
   inkscape:connector-curvature="0"
   d="m 28.283,79.221 c -1.321,0 -2.393,1.072 -2.393,2.394 0,1.322 1.071,2.394 2.393,2.394 1.322,0 2.394,-1.071 2.394,-2.394 0,-1.322 -1.072,-2.394 -2.394,-2.394 z m 0,3.591 c -0.661,0 -1.196,-0.536 -1.196,-1.196 0,-0.662 0.535,-1.197 1.196,-1.197 0.661,0 1.197,0.535 1.197,1.197 0,0.659 -0.536,1.196 -1.197,1.196 z"
   gorn="0.17.3"
   id="connector11pin" />
        <path
   style="fill:#9a916c"
   inkscape:connector-curvature="0"
   d="m 35.482,79.221 c -1.321,0 -2.393,1.072 -2.393,2.394 0,1.322 1.071,2.394 2.393,2.394 1.322,0 2.394,-1.071 2.394,-2.394 0,-1.322 -1.071,-2.394 -2.394,-2.394 z m 0,3.591 c -0.661,0 -1.196,-0.536 -1.196,-1.196 0,-0.662 0.535,-1.197 1.196,-1.197 0.661,0 1.197,0.535 1.197,1.197 10e-4,0.659 -0.535,1.196 -1.197,1.196 z"
   gorn="0.17.4"
   id="connector13pin" />
    </g>
</svg>